<?xml version="1.0" encoding="utf-8"?>
<svg
  xmlns="http://www.w3.org/2000/svg"
  viewBox="216.714 266.0305 30 31.9992"
  width="30px"
  height="31.9992px"
>
  <path
    fill="#009dab"
    d="M 244.577 275.003 L 233.154 281.409 C 232.264 281.909 231.714 282.838 231.714 283.844 L 231.714 287.824 L 241.714 282.215 L 241.714 286.198 C 241.714 287.204 241.164 288.133 240.274 288.632 L 231.714 293.432 L 231.714 296.626 C 231.714 297.702 232.899 298.377 233.851 297.843 L 245.274 291.437 C 246.164 290.937 246.714 290.008 246.714 289.002 L 246.714 276.22 C 246.714 275.144 245.529 274.469 244.577 275.003"
    style="stroke-width: 1px"
    transform="matrix(1, 0, 0, 1, 1.4210854715202004e-14, 0)"
  />
  <path
    fill="#33c4cc"
    d="M 229.588 266.584 C 230.91 265.846 232.519 265.846 233.84 266.584 L 239.214 269.598 L 226.374 276.799 C 225.045 277.535 224.219 278.932 224.214 280.452 L 224.214 294.836 L 218.874 291.84 C 217.546 291.104 216.719 289.706 216.714 288.188 L 216.714 276.245 C 216.714 274.735 217.538 273.342 218.874 272.593 L 229.588 266.584 Z"
    style="stroke-width: 1px"
    transform="matrix(1, 0, 0, 1, 1.4210854715202004e-14, 0)"
  />
</svg>
