<svg xmlns="http://www.w3.org/2000/svg" fill="none" viewBox="0 0 72 48"><path fill="#fff" fill-rule="evenodd" d="M2.89 31.461H0v-7.484h.012A7 7 0 0 1 0 23.562V8.594h3.303v8.317a8.18 8.18 0 0 1 4.955-1.665c4.559 0 8.258 3.726 8.258 8.316 0 4.589-3.7 8.315-8.258 8.315a8.18 8.18 0 0 1-5.207-1.864zm5.175-13.279c2.849 0 5.16 2.422 5.16 5.406s-2.311 5.404-5.16 5.404-5.162-2.421-5.162-5.405c0-2.983 2.312-5.405 5.162-5.405" clip-rule="evenodd"/><path fill="#fff" d="M52.432 31.455h-3.303v-8.732c0-2.524-1.85-4.573-4.13-4.573-2.278 0-4.128 2.05-4.128 4.573v8.732h-3.303v-8.732c0-4.13 3.33-7.483 7.432-7.483s7.432 3.353 7.432 7.483zM34.258 15.668h-3.303V24.4c0 2.524-1.85 4.573-4.13 4.573-2.278 0-4.128-2.05-4.128-4.573v-8.732h-3.303V24.4c0 4.13 3.33 7.484 7.432 7.484s7.432-3.354 7.432-7.484z"/><path fill="#fff" fill-rule="evenodd" d="M71.825 15.661h-2.89l-.161 1.448a8.18 8.18 0 0 0-5.207-1.864c-4.558 0-8.258 3.727-8.258 8.316s3.7 8.315 8.258 8.315a8.18 8.18 0 0 0 4.955-1.664v8.317h3.303V23.56q0-.21-.012-.416h.012zM58.6 23.535c0 2.983 2.313 5.405 5.162 5.405s5.161-2.422 5.161-5.405-2.312-5.405-5.161-5.405c-2.85 0-5.162 2.422-5.162 5.405" clip-rule="evenodd"/></svg>