<svg xmlns="http://www.w3.org/2000/svg" fill="none" viewBox="0 0 160 48"><path fill="#fff" fill-rule="evenodd" d="M24.477 12.96c0-.53-.433-.96-.967-.96H.967a.963.963 0 0 0-.967.96v22.08c0 .53.433.96.967.96H23.51c.534 0 .967-.43.967-.96zM5.439 29.333l6.8-10.666 6.799 10.666zm81.048-7.493v-5.297h-3.433v14.901h3.36v-1.388h.048q1.127 1.678 3.78 1.678 1.839 0 3.078-.819a4.9 4.9 0 0 0 1.828-2.176 7.3 7.3 0 0 0 .586-2.94q0-1.403-.428-2.474T94.12 21.54a5 5 0 0 0-1.735-1.07 6 6 0 0 0-2.072-.354q-2.456 0-3.78 1.726zm-.144 4.338q0-3.55 2.938-3.55 1.525 0 2.223.962.696.962.697 2.42 0 .76-.267 1.522a2.9 2.9 0 0 1-.9 1.289q-.634.526-1.652.526-1.526 0-2.282-.911-.757-.912-.757-2.258m-6.779.586s.559-6.96-5.971-6.96c-4.521 0-6.196 3.249-6.196 6.163s2.232 5.663 6.418 5.663c2.708 0 4.02-.88 4.996-1.842l-1.897-1.924s-1.075 1.195-3.07 1.195c-1.655 0-2.857-.91-3.219-2.295zm-8.927-2.035c.325-1.376 1.284-2.433 3.011-2.433 2.177 0 2.749 2.075 2.777 2.433z" clip-rule="evenodd"/><path fill="#fff" d="M159.497 20.862s-1.785-1.063-4.595-1.063-5.302 1.503-5.302 3.775 2.214 3.061 3.702 3.3q.32.05.658.088l.505.058c1.172.136 2.26.307 2.26 1.119 0 1.08-3.274 1.667-6.158-.148l-1.116 2.438s1.674 1.174 5.358 1.174S160 29.678 160 27.936c0-1.74-1.21-2.821-3.815-3.298l-.648-.118c-2.069-.374-2.626-.474-2.626-1.092 0-.678 1.694-2.035 5.433-.11zm-21.043 3.904v-8.999h-3.265v15.836h3.265V28.57l1.752-1.67 3.634 4.702h3.963l-5.314-6.878 4.84-4.615h-3.991zm-6.238-2.181c-1.121-1.715-3.148-2.859-5.464-2.859-3.53 0-6.391 2.658-6.391 5.938s2.861 5.939 6.391 5.939c2.273 0 4.266-1.104 5.399-2.764l-2.772-1.574a3.06 3.06 0 0 1-2.627 1.506c-1.696 0-3.07-1.392-3.07-3.107s1.374-3.107 3.07-3.107c1.169 0 2.187.663 2.704 1.638z"/><path fill="#fff" fill-rule="evenodd" d="M117.968 25.664c0-3.28-2.862-5.939-6.391-5.939s-6.39 2.66-6.39 5.939 2.86 5.938 6.39 5.938 6.391-2.658 6.391-5.938m-9.461 0c0-1.716 1.374-3.107 3.07-3.107s3.069 1.39 3.069 3.107c0 1.716-1.374 3.107-3.069 3.107-1.696 0-3.07-1.391-3.07-3.107" clip-rule="evenodd"/><path fill="#fff" d="M53.553 31.493V20.056h-3.544v11.437zM46.826 19.45v-2.859h-11.47v14.902H38.9v-5.416h7.005v-2.832H38.9V19.45zm18.142.386c-2.595-.303-3.851 1.649-3.851 1.649v-.082l-.149-1.348H57.74v11.437h3.377v-6.295c1.032-2.887 3.85-2.172 3.85-2.172zm36.84 11.574V15.712h-3.572V31.41zM53.864 16.564c0-1.048-.933-1.897-2.083-1.897s-2.084.85-2.084 1.897.933 1.897 2.084 1.897c1.15 0 2.083-.85 2.083-1.897"/></svg>