<svg xmlns="http://www.w3.org/2000/svg" fill="none" viewBox="0 0 152 48"><path fill="#fff" d="M152 25.022c0-3.773-2.559-6.93-6.717-6.93s-6.956 3.132-6.956 6.981c0 3.85 2.879 6.98 6.956 6.98 2.744 0 5.144-1.153 6.371-3.49l-2.758-1.334c-.638 1.155-1.838 2.053-3.225 2.053-2.158 0-3.785-1.412-4.023-3.286h10.259a9 9 0 0 0 .093-.974m-6.689-4.233c1.891 0 3.197 1.128 3.436 2.745h-6.981a3.37 3.37 0 0 1 1.25-1.998 3.6 3.6 0 0 1 2.295-.747m-27.852-7.956a2.2 2.2 0 0 0-.832.142c-.265.1-.507.25-.711.441-.203.192-.365.42-.475.673a2 2 0 0 0-.168.797 2.06 2.06 0 0 0 .674 1.412c.404.37.94.576 1.498.576a2.22 2.22 0 0 0 1.498-.576 2.06 2.06 0 0 0 .673-1.411 2 2 0 0 0-.166-.79 2.1 2.1 0 0 0-.469-.668 2.2 2.2 0 0 0-.699-.444 2.2 2.2 0 0 0-.823-.152m-89.262 18.99V13.241h12.08v3.184l-8.531-.036v5.091h6.076v3.13h-6.076v7.211zm44.59 0V18.4h3.386l.028 2.105c.638-1.694 2.503-2.386 4.45-2.413v3.184c-2.986.024-4.478 1.257-4.478 3.77v6.763zm29.24 0V24.02c0-.39-.079-.778-.235-1.139a3 3 0 0 0-.67-.965 3.1 3.1 0 0 0-1.003-.645 3.2 3.2 0 0 0-2.365 0c-.375.15-.716.369-1.003.645a3 3 0 0 0-.67.965 2.9 2.9 0 0 0-.235 1.14v7.8H92.46v-18.58h3.34v6.7c1.124-1.31 2.61-1.85 4.422-1.85 2.908 0 5.197 2.434 5.197 5.57v8.16zm6.662 0V13.241h3.385v18.58zm7.062 0V18.4h3.385v13.422zm16.606 0V24.02c0-1.772-1.307-2.975-3.065-2.975a3.1 3.1 0 0 0-1.203.192 3 3 0 0 0-1.021.642c-.291.28-.518.614-.666.983a2.7 2.7 0 0 0-.2 1.158v7.801h-3.371V18.4h3.589v1.542c1.147-1.285 2.293-1.85 4.159-1.85 2.904 0 5.172 2.434 5.172 5.57v8.16zm-85.261-10.78c-2.267 0-3.784 1.645-3.784 4.057s1.517 4.004 3.784 4.004c2.21 0 3.784-1.623 3.784-4.004s-1.573-4.057-3.784-4.057m0 11.01c-4.158 0-7.17-2.925-7.17-6.955 0-4.08 3.012-7.006 7.17-7.006s7.17 2.927 7.17 7.006c0 4.03-3.012 6.954-7.17 6.954m15.91-2.95c-1.76 0-3.09-1.203-3.09-3.002v-7.7H56.53v7.827c0 3.438 2.905 5.824 6.475 5.824 3.571 0 6.479-2.386 6.479-5.824V18.4h-3.386v7.7c.02.397-.047.793-.196 1.164a2.9 2.9 0 0 1-.666.991 3 3 0 0 1-1.023.65 3.1 3.1 0 0 1-1.208.2m25.668 2.95c-3.812 0-5.618-1.564-5.618-5.44V14.578h3.385V18.4h3.225v2.773h-3.23v5.44c0 1.641.904 2.434 2.61 2.434q.309-.003.614-.052v3.003c-.294.03-.668.054-.986.054M0 20.988v13.349l13.859-13.35zm0-8.926v13.319l13.859-13.32z"/></svg>