<svg xmlns="http://www.w3.org/2000/svg" fill="none" viewBox="0 0 48 48"><path fill="#16bbca" d="M20.871.837a6.27 6.27 0 0 1 6.258 0l7.822 4.508-18.772 10.82a6.24 6.24 0 0 0-3.129 5.409V43.21l-7.822-4.508A6.24 6.24 0 0 1 2.1 33.294V15.262a6.24 6.24 0 0 1 3.128-5.41z"/><path fill="#00838f" d="m42.797 13.445.013-.008a2.084 2.084 0 0 1 3.088 1.912h.002v17.945a6.24 6.24 0 0 1-3.128 5.41l-15.57 8.973A2.084 2.084 0 0 1 24 45.88v-4.772l12.514-7.213a4.16 4.16 0 0 0 2.086-3.606v-6.01L24 32.692v-6.01c0-1.487.795-2.862 2.086-3.606l16.663-9.604z"/></svg>