<svg xmlns="http://www.w3.org/2000/svg" fill="none" viewBox="0 0 112 48"><path fill="#fff" d="M61.823 21.224h-.794l-.07-.23c-.454-1.517-1.056-2.435-2.216-3.384-1.427-1.13-3.506-1.897-5.297-1.897-2.005 0-3.762.733-5.085 2.055-1.662 1.659-2.469 4.24-2.469 7.267 0 2.81.833 5.296 2.54 7.004 1.459 1.455 3.358 2.278 5.492 2.279 1.441 0 2.585-.394 4.158-1.43v-5.083c0-1.933-.4-2.313-2.52-2.396l-.31-.011v-.815h9.301v.815l-.309.011c-1.904.077-2.19.442-2.19 2.78v5.483l-.498.27c-2.843 1.524-4.695 1.988-7.93 1.988-3.885 0-6.557-.87-8.943-2.908-2.368-2.038-3.525-4.456-3.54-7.395-.015-3.069 1.122-5.908 3.2-7.994 2.263-2.27 5.432-3.52 8.924-3.52 1.795 0 3.927.437 5.572 1.15.38.172.716.236.85.236.474 0 .637-.694.692-1.11l.038-.277h.812zm-22.857-5.89c-3.3-.013-2.885 1.809-2.904 5.469V35.46l-1.048-.011-15.916-16.638c.004.018.179.861.205 1.337v10.28c-.09 3.75.375 4.203 2.793 4.16v.856h-7.683v-.857c2.421.003 2.898-.32 2.895-4.465V20.24l-.02-1.608c.09-2.08-.68-3.288-3.028-3.269v-.823h7.073l13.218 13.88s-.183-.858-.21-1.338v-6.278c-.041-3.66.458-5.483-2.745-5.469v-.823h7.37zm-28.381.036h-.633c-.858 0-1.456.18-1.823.549-.408.406-.589 1.076-.589 2.172v13.746c0 1.878.394 2.722 2.727 2.75l.32.004v.839H0v-.843h.323c2.355 0 2.755-.848 2.755-2.75V18.092c0-1.1-.182-1.772-.59-2.18-.364-.363-.95-.541-1.792-.541L0 15.37v-.855h10.585zm73.548 2.83-.786-.332c-.013-.049.024-.072.063-.078h.822zm-4.833-.522c.28.04.575-.085.816.053-.05.092-.189.13-.3.157l-.439.202c-.162-.039-.07-.3-.077-.412m5.874-4.182c.071.066-.065.125-.066.204-.104.098-.255.124-.347.215-.221.006-.202.268-.358.38-.243.241-.597.13-.878.091-.098-.072-.209-.17-.256-.281l-.078.078c.098.366.072.771.145 1.143l.406.269c.006.6.712.437 1.02.77-.073.217-.217.4-.373.582a2.2 2.2 0 0 0-.83-.503c-.028-.35-.412-.561-.627-.737-.06-.641-.073-1.296-.177-1.916l.077-.033c.163-.229.412-.248.648-.293zm-4.807-.096a.78.78 0 0 1 .378.345c-.02.705-.235 1.38-.267 2.104-.268.11-.53.335-.597.628-.241.072-.458.215-.694.326-.102-.221-.084-.556.1-.74.255-.358.916-.275.863-.842.17-.274.008-.628.012-.915-.064-.215-.13.072-.235.065-.208.045-.424.059-.608-.046-.138-.144-.305-.263-.346-.457-.184-.092-.398-.235-.49-.424l.098-.024c.595-.053 1.17.031 1.786-.02m2.216-1.38c.144-.052.335-.033.484-.012.372-.065.353.418.693.436.06.078.144.15.111.268-.197.078-.484.041-.706.092-.294-.164-.105-.674-.569-.64-.026-.04-.076-.119-.013-.144m-1.257.013c-.215.216-.385.497-.548.758l-.896-.02c.099-.235.347-.43.562-.548.28-.092.582-.28.882-.19m4.116-1.828c.333.156.647.351.954.574.242.444.203 1.045.091 1.541-.176.195-.562.001-.705.314h-.028c-.215-.614-.83-1.164-1.398-1.443.091-.314.19-.621.504-.804zm-7.162-.079c.508.255 1.332.386 1.38 1.124-.517.203-1.015.476-1.427.894-.313-.32-.948-.144-1.054-.705.1-.53.289-1.197.91-1.333z"/><path fill="#fff" fill-rule="evenodd" d="M80.046 7.562c-.02-.084.08-.065.126-.045.496.202.985.47 1.45.738.287-.138.587-.294.88-.405-.091.424-.304.89-.299 1.392.21-.15.354-.43.555-.64-.018-.3.26-.53.36-.784.347-.098.91-.163 1.25 0-.354.058-.3.347-.293.581l.033.026c.268-.059.645-.163.854-.373.36.06.597.112.885.327-.248.119-.562.23-.739.49.4-.012.825-.037 1.223-.097l.177-.11c1.027.64 1.36 1.756 1.74 2.763-.138-.026-.275-.138-.439-.157.046.189.067.483.328.548.32.034.392.335.569.55.457.451 1.125.732 1.38 1.346.504.83.511 1.87.818 2.777-.176-.235-.576-.156-.804-.379.038.281.202.588.457.758.221.119.458.196.693.295.255.444.353.947.438 1.457a2.7 2.7 0 0 0-.58-.282l-.035.033c.027.424.328.784.694.974.012.358.032.68.046 1.018.636.512 1.474.957 2.304 1.059q.236.031.487.02c.174 0 .348-.06.516-.075.688-.058 1.321-.25 1.884-.608a1.34 1.34 0 0 1 .459-1.202c.502-.555 1.327-.523 1.994-.347 1.089.405 1.938 1.217 2.621 2.157.572.788 1.027 1.666 1.409 2.471.597 1.402.92 2.86.988 4.482l.006.143a13.8 13.8 0 0 1-.368 3.852c-.026.136.132.15.21.201 1.247.343 2.458.008 3.44-.756.312-.241.599-.526.858-.843.686-.75 1.114-1.62 1.503-2.543.729-2.214.592-4.828-.137-6.952a12 12 0 0 0-.123-.339c-.871-2.326-2.871-4.778-5.214-5.85-.954-.163-1.824.307-2.812.079-.687-.203-1.359-.544-1.85-1.119l.018-.058c.387.047.753.136 1.1.281.012-.163-.151-.294-.177-.458.405-.098.811-.188 1.243-.215-.236-.51-.844-.248-1.223-.47-.137-.006-.289-.059-.413 0 .034.157.131.294.124.47-.202.052-.399-.098-.608-.111-.143.013-.32-.078-.424.046-.42-.537-.57-1.327-1.289-1.647l.02-.065c1.17-.294 2.255-.9 3.577-.75.144.03.294.058.425.123l-.347.312c.314.296.675.537 1.132.524l.026-.032c-.033-.229-.163-.418-.281-.614.431.072.752.47 1.086.772a8.26 8.26 0 0 0 2.703 2.81c1.932 1.203 3.185 3.254 4.106 5.156q.252.556.458 1.156c.736 2.155.998 4.688.501 6.95q-.159.721-.422 1.399c-.237.728-.604 1.336-1.068 1.986a10.2 10.2 0 0 1-1.903 1.999 6.8 6.8 0 0 1-4.893 1.123c-.411.38-.961.368-1.477.446h-4.665c-.064-.32.178-.45.158-.771.06-.327.157-.733.517-.83.013-.013.026-.02.02-.033.117.307.261.64.437.942.236-.132.367-.388.394-.648-.048-.287-.256-.516-.473-.732l-.065-.02c.19-.137.262-.372.425-.549.17.177.373.477.648.38.092-.04.228-.091.234-.222-.03-.046-.005-.124-.077-.137-.444-.28-.832-1.09-1.432-.681-.555.608-1.028 1.276-1.145 2.072l-.112 1.229c-.274-.013-.575.06-.83 0 .078-.581-.098-1.163.033-1.745.15-.051.268.145.406.223.019.038.079.038.098 0 .052-.19.32-.353.17-.568-.072-.184-.275-.327-.424-.471.045-.222.215-.4.334-.595.05.007.031.045.057.079a.45.45 0 0 0 .393.123c.058-.02.228-.007.144-.123-.02-.119-.163-.242-.065-.347.235-.083.558.224.73-.051a1 1 0 0 0 .042-.086c-.412-.248-.831-.496-1.38-.347-.306-.04-.37.29-.576.433l-.072.038c-.496-.085-1.014.085-1.47.091l-.838 1.274c.02.419-.053.955.13 1.347.164.248.301.457.42.725h-8.961c.13-.287.386-.581.595-.803.026.092.15.092.223.143l.627.126c.216-.08.45-.144.627-.302-.379-.202-.791-.321-1.163-.53.039-.483.241-1.129-.17-1.509-.224-.17-.518-.177-.786-.236-.307.105-.654.25-.818.569-.242-.248-.51-.477-.83-.569.01-.117.032-.239.057-.364.023-.117.048-.236.067-.353.49-.282 1.074.032 1.57.156.111 0 .21.065.314.034.034-.085-.111-.085-.112-.177-.457-.686-1.261-.764-2.072-.66-.347.034-.347.752-.707.392-.268-.071-.504.132-.785.132l-.53.202q-.083.135-.165.275c-.27.464-.509.942-.744 1.417.026.431-.144.96.104 1.334.119.241.276.523.446.724H69.376c-.405-.542-.653-1.276-.515-1.982.097-.313.255-.627.55-.83a1.4 1.4 0 0 1 .1-.62c.114-.273.314-.507.571-.7.36-.242.832-.32 1.29-.236.516-.541 1.334-.691 2.042-.457.17.072.332.15.483.256.373-.731.465-1.58.766-2.34a4 4 0 0 1 .117-.268c.3-.628.503-1.344.864-1.951-.53-1.457-.993-2.986-1.287-4.534a.47.47 0 0 1 .133-.243 1.2 1.2 0 0 1 .199-.163c.132-.313.244-.634.327-.96-.15.02-.294.149-.457.19-.091.142-.236.26-.28.424-.08-.027-.099-.19-.126-.302.033-.418-.286-.92.091-1.252l.38-.314c.007-.308.046-.608.078-.908h-.066c-.201.189-.535.345-.595.626h-.032l-.013-1.332c.123-.097.294-.178.425-.302-.06-1.49.045-2.947.45-4.26.125-.32.38-.575.57-.861.02-.373.007-.759.091-1.098.242-.144.46-.399.707-.549-.111-.091-.3-.086-.452-.112.216-.587.674-1.079 1.125-1.522.203-.157.398-.32.627-.406.073-.007.112.046.158.092.457.044.87.228 1.334.201-.15-.241-.413-.482-.72-.482l.058-.033c.412-.176.697-.294 1.142-.38.065.367.442.609.573.942l.269.222c-.045-.439.118-1.013-.307-1.32M69.643 33.065c-.04.503 0 .975.032 1.472.105.163.296.353.485.365l.032-.333c.078-.464-.17-.956.093-1.349.182.058.366.15.523.235.077-.43-.034-.935-.446-1.197zm2.152-1.602c-.202.288-.424.568-.536.895-.255.765-.444 1.707-.137 2.512.176-.118.359-.23.515-.392-.032-.615-.116-1.27.25-1.78.32.098.537.405.66.704.216-.273.287-.653.203-1.017.013-.288-.314-.223-.471-.34.052-.243.045-.522.3-.66zm2.76.112c-.458.045-.87.235-1.19.595-.399.73-.464 1.557-.49 2.446.033.058 0 .163.066.177.097-.55.542-.906.785-1.39.117-.161.112-.392.301-.515.254 0 .439.183.687.202.077.06-.04.113-.047.177-.052.445-.222.813-.19 1.271h.046c.346-.366.582-.761.837-1.18l.046-.37c.06-.445-.425-.733-.74-.916l.282-.36zm12.515-.927c-.301.073-.622-.018-.85.19-.341.027-.367.4-.452.64h.078c.346-.215.85-.051 1.19-.28.189-.097.203.163.333.236.32.195.362.783.812.646.54.281.405.941.425 1.424l.504-.313c-.046-.254.098-.562-.066-.784-.124-.28-.464-.307-.628-.535.196-.333-.247-.492-.34-.733l.027-.033.693.093c.235.143.321.404.393.646.541.093.673.706.863 1.098.111-.267.157-.556.268-.817.007-.215-.28-.217-.425-.314-.038-.333-.19-.647-.483-.848-.602-.153-1.132-.484-1.792-.484zm-.269 1.223c-.105-.08-.243.025-.36.018l-.202.08c.209.177.425.477.753.438.403.19.235.725.456 1.006l.235-.209-.02-.014.034-.032.013.019c.065-.195-.027-.541-.138-.771-.15-.104-.326.005-.47-.092-.02-.21-.151-.313-.301-.443m-11.818-1.806c-.204.176-.342.405-.348.673.149.044.287-.077.436-.014.603.223 1.23.452 1.682.954l.537 1.366.269-.844-.177-.455c-.15-.327-.563-.3-.844-.314-.117-.131.006-.282.046-.405.136-.463-.432-.44-.66-.628.012-.279-.328-.184-.519-.209l-.064-.077c-.04-.06-.137-.06-.19-.015-.012-.02-.039-.033-.026-.065zm26.07 1.211c.202.405.648.713.693 1.176.104-.123.177-.268.248-.405-.007-.13-.158-.13-.215-.235-.06-.17.031-.32.058-.47a1.3 1.3 0 0 0-.516-.615zm-10.655-1.94c.1.68.529 1.306.294 2.05.196.139.256.367.38.55h.032c.15-.567.047-1.157-.031-1.725.058-.515-.466-.817-.774-1.084zm-14.617-.76c-.44-.067-.48.456-.768.659.02.084.072.17.137.222.295-.078.578-.282.916-.157.439.385.897.79 1.427.999l.19-.032c.116.038.247.045.325.176.072.176-.11.28-.168.424.293.216.178.601.36.862l.47-.625c-.11-.275.006-.745-.423-.772a.41.41 0 0 1-.238-.378c-.28-.255-.627-.367-.907-.628-.23-.183-.368-.463-.66-.529a2.4 2.4 0 0 0-.661-.22m22.577 1.636c-.112-.033-.211-.125-.303 0-.325.22-.346.548-.66.705.184.085.42-.065.597-.17.163-.038.3.053.425.137.052.104 0 .203.02.302.392.11.777.254 1.123.483l.11-.111c.027-.28-.194-.484-.404-.641-.137-.078-.34-.033-.438-.157.066-.104.066-.262.059-.38-.216 0-.354-.065-.529-.168m3.846-.64c-.176.182-.203.464-.346.672l.47.641c.202-.32.202-.791.124-1.177-.045-.072-.131-.189-.248-.136m-3.016-.625c-.202-.044-.379.134-.582.134-.09.09-.143.203-.221.301-.04.111-.15.293.052.346.418.012.954-.203 1.281.123.111.085.059.262.052.373l.549.458c.053-.276.152-.524.159-.818a.92.92 0 0 0-.334-.548c-.36 0-.57-.42-.956-.369m-12.105.2c-.209 0-.445.044-.64.136-.28.013-.55.15-.819.235-.124.248-.224.55-.315.804h.047c.392-.313.856-.419 1.32-.549.124.047.047.184.158.235.281-.116.622-.091.909-.188.346.012.628.018.909.168.224.294.641.261.93.458l-.047-.458c-.608-.712-1.556-.764-2.432-.75zm7.285-2.322c-.21.29-.831.355-.673.845.332.306.216.75.189 1.162-.052.249.262.105.36.236.203.3.085.74.014 1.065.177-.268.379-.504.515-.798-.005-.11.138-.164.132-.3.058-.19-.163-.105-.255-.125-.079-.02-.164-.072-.137-.177.168-.326.012-.718-.053-1.045-.078-.268.033-.627-.092-.863m-18.726 1.122.078.127c.327-.02.621-.164.942-.158.215.13.497.123.72.235.176.242.367.515.626.678.53.079.824.65 1.007 1.066v-.202c.078-.281-.007-.61-.11-.864-.13-.13-.322-.215-.458-.331-.026-.085-.007-.126.02-.203-.204-.216-.505-.334-.754-.504-.346-.503-1.012-.366-1.543-.504zm16.797-1.309c-.119.267-.412.457-.393.784-.047.306.293.346.436.516.118.143-.077.242-.077.378.248.32.393.685.393 1.11.097-.397.248-.776.3-1.187-.026-.288-.483-.23-.412-.55.13-.326-.026-.646-.111-.941-.025-.045-.085-.136-.136-.11m-4.46 1.234c-.503-.555-.83.456-1.381.21-.195.214-.438.419-.484.704l.125.06c.268-.124.536-.268.817-.372.437-.123.778.371 1.145.058.136-.096.255.046.359.125.159.286.524.267.8.345-.138-.371-.31-.881-.786-.941-.189-.084-.412-.078-.595-.189m11.086-.473c-.347.086-.255.49-.3.765-.04.084-.118.15-.113.254.255-.073.42-.353.694-.38.417.008.791.178 1.053.538.156.103.124.37.327.371-.06-.32.045-.613.031-.94-.273-.457-.954-.104-1.209-.64zm-17.052.697c-.347.129-.76.091-1.133.032l.492.64c.261.084.588.059.817-.091zm1.87-.44c-.197.008-.4.047-.583.034.015.143.047.287.093.418.222.253.522.386.836.456-.051-.07.033-.001.046-.044zm9.496-3.528c.269.163.575.398.72.686.229.666.596 1.267.863 1.914.099.45.177.854.301 1.297.047.118.02.345.203.326.052-.496.15-.974.158-1.49-.164-.215-.38-.306-.583-.436v-.047c.027-.11.12-.242.255-.22.059-.066.236-.132.158-.25-.34-.339-.322-.923-.863-1.028-.19-.079-.235-.276-.255-.457-.256-.217-.635-.288-.957-.295m3.028 2.03c-.058-.158-.253-.105-.378-.092l-.204.078c.014.06.041.112.068.17.254.418.496.85.673 1.3-.053-.483.274-1.084-.159-1.457m4.051-.067a2.6 2.6 0 0 0-1.394-.078c-.15.136-.367.119-.549.157-.013.052.019.086.026.13.084.177.184.464.347.483.386-.168.949-.273 1.38-.09.143.026.143.19.112.294.221.13.49.235.725.378l-.066-.392c-.013-.424-.548-.463-.581-.882m-18.367-.316c-.302.085-.563-.014-.844.124-.17.306-.276.655-.602.876-.052.22-.294.371-.405.548a6.5 6.5 0 0 0 1.19-.483c.242-.347.608-.66.661-1.065m10.943-.805-.092.897.34.66c.15-.02.248-.164.365-.27.091-.273-.15-.45-.221-.673-.06-.157 0-.365-.112-.502-.085-.053-.183-.138-.28-.112m-10.047.052a.6.6 0 0 0 .11.34c.51.184.563.803 1.035 1.039.305.138.66-.033.927-.158-.202-.228-.431-.385-.627-.626-.137-.059-.276-.144-.269-.314zm-3.52.752c-.247.13-.483.326-.706.504.347.058.72 0 1.04-.099.463-.112.72-.62.876-1.018h-.582zm-.81-.862c-.119-.007-.237-.06-.347-.02-.242.535-.725 1.066-1.276 1.334.451.026.89.116 1.256-.138zm7.751-.098c-.353.116-.733.164-1.113.208.654.477 1.296 1.033 2.21.83.066-.044.178-.04.19-.124-.268-.17-.555-.302-.83-.458l-.313-.456zm14.035-.101c-.504-.118-1.106-.431-1.616-.111-.183.222-.51.157-.759.255.015.221.041.438.1.64.137.145.366.118.563.145l.569-.223c.005-.102-.17-.131-.131-.248.157-.176.372-.052.569-.124.274-.04.556-.313.831-.112-.009.034.011.079-.015.112-.084.202.059.327.216.405.321.059.621.353.942.221-.032-.267-.104-.514-.169-.77-.269-.046-.459-.268-.707-.36-.11.105-.256.183-.393.17m-22.75-.742c-.208-.123-.483-.038-.684.034-.072.422-.184.841-.19 1.3l.293-.3c.294-.302.538-.65.582-1.034m14.411-.098c-.045.183-.098.36-.078.568-.032.275.151.504.347.642.072-.162.188-.302.202-.484a1.2 1.2 0 0 0-.471-.726m-4.159-.125c-.307.06-.654.053-.888.256.215.358.633.582.967.83.275.124.634.156.929.09a6 6 0 0 1-.772-.764c-.092-.131-.112-.295-.236-.412m6.358-.718c.582.589 1.007 1.18 1.634 1.749.014-.255-.019-.49-.031-.738-.092-.177-.263-.307-.407-.439-.464-.045-.706-.67-1.196-.572m-11.877-.156c-.261.3-.413.484-.728.627l.19.862c.457-.372.551-.915.538-1.489m17.403-.043c-.4.124-.812.262-1.256.222-.262.099-.446.34-.74.313-.011.217-.044.48.033.675 0-.02 0-.04.02-.046.06.052-.006.177.092.203.17-.085.327-.203.483-.314.439 0 .701-.425 1.132-.425.72.13 1.433.276 2.06.627-.045-.423-.413-.81-.784-1-.21-.07-.374.04-.523.157-.438.275-.21-.398-.517-.412m-16.056-.16c-.195.236-.399.387-.582.627-.085.483.607.6.895.784-.183-.424-.26-.941-.313-1.41m-3.747.047c.013.514.417.953.809 1.286.04-.327-.097-.707-.136-1.038-.196-.132-.47-.12-.673-.248m4.957-.896c-.229.555-.505 1.216-.1 1.815.237.309.752.204 1.04.112-.137-.235-.58-.374-.658-.626a5.6 5.6 0 0 0-.282-1.3m-8.935.85c-.144.142-.367.287-.418.482.058.203.129.457.169.674.182-.405.544-.59.863-.921-.183-.125-.412-.184-.614-.223zm13.553.437c-.216-.332-.497.085-.771.06.006.076.084.135.112.188.45.267 1.024.53 1.626.438.065-.032.177-.026.19-.104-.374-.131-.766-.504-1.157-.582m-12.546-1.96c-.032.313.054.613.112.908.294.43.785.913 1.287 1.051-.058-.549-.529-.929-.771-1.398l-.013-.157a2.4 2.4 0 0 0-.615-.404m1.635.313c.099.51.315.975.61 1.412l.077-.974zm6.83-.346c.105.392.092.83.315 1.175.254.334.633.59 1.065.505-.221-.218-.478-.446-.49-.752.065-.581-.576-.628-.89-.928m13.465.572c-.444-.261-.744.176-1.085.392-.092.176-.137.437-.045.615.162-.047.334-.093.47-.21.44-.398 1.073-.131 1.584-.137a3.6 3.6 0 0 0-.36-.503c-.184-.072-.355-.157-.564-.157m-8.573.748c.34.262.883.286 1.275.156-.248-.137-.523-.288-.726-.47zm-2.46-1.13c-.182.058-.378.221-.535.359.3.372.765.223 1.19.236v-.046zm-4.606-1.915c-1.11-.359-2.536-.43-3.61.125-.07.443.02.933.303 1.287l.393-.379c.033 0 .059.006.077.031l-.031.726c.19.176.424.234.672.248.02-.195.17-.334.256-.503.071-.137.027-.34.17-.437l.046.046c.044.216.032.457.144.645.013.105.031.236.044.328.288.013.551-.066.772-.171-.013-.248.073-.45.11-.678.06-.079-.07-.223.092-.216.092.196.256.398.348.608.378-.386.537-.889.626-1.412-.11-.149-.28-.15-.412-.248m15.404.794c-.183-.156-.47-.045-.66-.032-.184.13-.334.294-.439.483-.007.17-.13.358-.02.504.16-.176.42-.17.63-.248.582-.053 1.137.13 1.68.261-.137-.216-.229-.458-.38-.653-.301-.08-.759.13-.81-.315m-9.356.1c-.256-.202-.531-.026-.8.032.098.137.126.315.222.439.177.116.439.097.655.078.195-.045.32.169.503.046-.228-.144-.365-.405-.58-.596M78.593 9.464c-.419-.19-.753.111-1.067.313-.138.058-.295.079-.425.157-.235.366-.456.738-.609 1.143.047.333.19.626.361.908.15.425.621.759 1.02.929a3.85 3.85 0 0 0 0 2.07l-.01.007-.022.02c-.061 0-.13.011-.18-.02h-.009c.094.624.387 1.172.862 1.64.17.059.132.262.203.391.046.06.052.184.033.236a5.14 5.14 0 0 0-2.748.686c-.209.105-.118.392-.138.595.576-.38 1.198-.66 1.885-.784.294-.018.627-.092.909-.014l.031.564c-.777.405-1.628.64-2.294 1.306.013.202-.026.437.032.607l.596-.483c.575-.438 1.178-.81 1.837-1.051.178.208.361.431.597.561a4.4 4.4 0 0 1 1.288-.561c.242-.144.629-.015.785-.301l.11-.595c-.017-.013-.032-.04-.064-.033-.307-.177-.51-.484-.484-.843a.9.9 0 0 1-.347.09c-.103-.024-.202-.051-.248-.156-.006-.13-.072-.326.06-.423.424-.262.974-.275 1.51-.236.398.053.974.033 1.113.503-.02.137-.008.288-.145.379-.144.078-.307-.007-.438-.066-.104.32-.281.68-.64.784l.044.379c.045.17.06.45.328.391.62.152 1.17.472 1.713.817.183-.182.327-.391.457-.581.97.328 1.806 1.053 2.605 1.727l.032-.55c-.759-.674-1.603-1.15-2.48-1.522.034-.177.074-.347.08-.537 1.04.06 2.028.38 2.884.882l-.014-.47c-.902-.484-1.89-.804-2.968-.816a.32.32 0 0 1-.047-.203c.524-.084.896-.627 1.021-1.099.27-.306.655-.64.564-1.096q.016-.057.038-.118c.034-.112.063-.233.026-.339-.125.162-.314.204-.471.235.275-.502.405-1.202.19-1.77.142-.052.3-.079.437-.157l-.013-.014.36-.313c.477-.327.294-.947.47-1.412-.234-.365-.307-.81-.647-1.117l.02-.013c-.269-.34-.753-.3-1.119-.47-.484-.163-.858.17-1.205.392-.15.027-.058.222-.221.215-.091.242-.203.504-.27.771-.646-.091-1.346-.019-1.863.347-.276-.203-.608-.242-.929-.333-.235-.047-.503.038-.673-.092-.248-.28-.302-.79-.727-.862-.15-.053-.182-.217-.182-.36-.282-.047-.531-.177-.804-.235m9.935 8.155c-.05.242-.019.542-.026.783.255.282.504.732.956.595-.034-.19-.139-.347-.203-.516-.117-.137-.158-.529-.393-.392-.176-.117-.222-.313-.334-.47m-12.853-3.077c-.156.3-.287.601-.3.96l.38 1.177c-.008-.667.3-1.224.235-1.902l.28-.419zm11.474 1.79.536-.17.06-.3c.149-.438-.17-.765-.328-1.11zm16.245-3.532c-.314.02-.622.049-.896.171.347.033.597.34.831.595.293.045.516.255.692.47l-.11-.346c-.078-.347-.296-.615-.517-.89m-27.247-.4c-.217.13-.334.354-.504.529l-.013.536.517-.3zm24.815-.478c-.367.078-.661.34-1.021.438.169.085.333.163.537.177.136-.072.314-.126.484-.079.241.157.536-.032.817-.019-.248-.235-.531-.38-.817-.517" clip-rule="evenodd"/><path fill="#fff" d="M85.06 32.925c.176.005.34.031.472.156.228.287.005.654-.078.94-.093.438-.25.896-.394 1.307h-.66l.235-1.934c.125-.163.177-.438.425-.47m-2.668-.864c-.119.392-.164.883-.203 1.334.078.666.176 1.379.516 1.934h-.93c-.103-.614-.745-1.06-.548-1.778.255-.163.667-.203.726-.58-.104-.08-.196-.178-.314-.204l-.268.078c.02-.157.104-.333.158-.503zm1.523 1.275.091-.02c-.051.667-.085 1.32-.091 2.013h-.68c-.138-.647-.366-1.328-.34-2.026.117-.176.196-.399.341-.536h.051zm11.741-.862c-.105.346-.302.66-.268 1.064.006.589.105 1.178.157 1.79h-.72c-.26-.575-.522-1.123-.503-1.79.078-.117.13-.255.235-.346.144.184.19.432.405.595.19-.261.236-.667.145-1l-.19-.19c.242-.057.497-.078.74-.123"/></svg>