<svg xmlns="http://www.w3.org/2000/svg" fill="none" viewBox="0 0 136 48"><path fill="#fff" d="M120.321 36.636q0 .474.208.844.209.366.595.578.388.21.929.209.54 0 .928-.209a1.47 1.47 0 0 0 .594-.578q.209-.37.209-.844v-4.223h.783v4.286q0 .664-.312 1.185a2.2 2.2 0 0 1-.876.819q-.565.297-1.326.297t-1.328-.297a2.2 2.2 0 0 1-.878-.819 2.3 2.3 0 0 1-.309-1.185v-4.286h.783zm-30.893-4.311q.51 0 .954.154a2.57 2.57 0 0 1 1.377 1.1q.234.387.322.857h-.809a2.3 2.3 0 0 0-.275-.572 1.8 1.8 0 0 0-.401-.437 1.7 1.7 0 0 0-.524-.274 2.1 2.1 0 0 0-.645-.095q-.574 0-1.045.297t-.75.876q-.277.577-.277 1.419 0 .84.282 1.419.28.578.76.875t1.081.297q.556 0 .979-.237.427-.24.663-.676.23-.42.24-.983h-1.705v-.695h2.465v.695q0 .8-.343 1.391-.338.591-.934.917-.594.322-1.365.322-.86 0-1.51-.405a2.7 2.7 0 0 1-1.011-1.15q-.36-.747-.36-1.77 0-.768.205-1.381.208-.617.588-1.05.379-.432.897-.664.518-.23 1.14-.23"/><path fill="#fff" fill-rule="evenodd" d="M110.828 32.325q.827 0 1.472.404.645.406 1.014 1.15.37.747.37 1.77t-.37 1.77a2.77 2.77 0 0 1-1.014 1.151q-.645.405-1.472.405a2.7 2.7 0 0 1-1.472-.405 2.8 2.8 0 0 1-1.014-1.15q-.37-.747-.37-1.77t.37-1.77q.37-.745 1.014-1.15t1.472-.405m0 .733q-.588 0-1.064.297-.475.297-.756.876-.278.577-.278 1.419 0 .84.278 1.419.281.578.756.875.477.297 1.064.297t1.062-.297a2.04 2.04 0 0 0 .754-.875q.28-.579.281-1.42 0-.84-.281-1.419a2.04 2.04 0 0 0-.754-.875 1.96 1.96 0 0 0-1.062-.297m-10.645-.645q.759 0 1.245.259.487.256.721.705.233.45.234 1.021 0 .572-.234 1.014a1.65 1.65 0 0 1-.718.696q-.12.063-.257.109l1.461 2.67h-.91l-1.364-2.533-.165.003h-1.415v2.53h-.784v-6.474zm-1.402 3.237h1.39q.518 0 .834-.152a.96.96 0 0 0 .462-.43q.145-.28.145-.67 0-.389-.145-.68a1 1 0 0 0-.465-.449q-.32-.16-.844-.16h-1.377zm34.073-3.237q.762 0 1.245.275.488.272.72.737.234.465.234 1.036 0 .572-.234 1.04-.23.468-.714.746-.483.276-1.238.275h-1.415v2.365h-.784v-6.474zm-1.402 3.414h1.39q.521 0 .837-.18t.458-.487a1.64 1.64 0 0 0 .146-.699q-.001-.388-.146-.695a1.04 1.04 0 0 0-.461-.48q-.32-.177-.847-.178h-1.377z" clip-rule="evenodd"/><path fill="#fff" d="M24.592 21.203v7.242l-12.296 7.103L0 28.445v-7.242l4.828-2.789v7.243l7.468 4.314 7.468-4.314v-7.243zm46.211 7.237c0 3.205-1.401 4.808-4.315 4.808-.778 0-1.312-.045-1.89-.156v-3.16h.178c.289.067.534.11.778.11 1.023 0 1.401-.466 1.401-1.623V16.937h3.848z"/><path fill="#fff" fill-rule="evenodd" d="M58.817 16.603c3.492 0 6.383 2.603 6.383 6.008s-2.824 6.052-6.405 6.053c-3.558 0-6.36-2.649-6.36-6.053s2.89-6.008 6.382-6.008m0 3.538c-1.423 0-2.535 1.09-2.535 2.47 0 1.402 1.112 2.492 2.513 2.492 1.423 0 2.558-1.09 2.558-2.492 0-1.38-1.135-2.47-2.536-2.47m19.889-3.538c3.603 0 5.604 2.315 5.604 4.962 0 .735-.066 1.469-.4 2.136h-7.672c.445 1.558 2.001 1.892 3.358 1.892 1.534 0 2.557-.2 3.669-.646h.267v2.76c-1.201.667-2.602.957-4.514.957-3.848 0-6.428-2.315-6.428-5.986 0-3.805 2.602-6.075 6.116-6.075m.044 2.804c-1.156 0-2.134.534-2.49 1.958h4.803v-.111c-.045-.98-.934-1.847-2.313-1.847" clip-rule="evenodd"/><path fill="#fff" d="M91.917 16.603c1.422 0 2.602.311 3.425.779v3.404h-.245c-.712-.378-1.69-.645-2.847-.645-1.601 0-2.691.957-2.691 2.492s1.067 2.515 2.713 2.515a6.4 6.4 0 0 0 2.825-.645h.245v3.404c-.823.445-1.98.757-3.425.757-3.915 0-6.383-2.515-6.383-6.03s2.513-6.03 6.383-6.03"/><path fill="#fff" fill-rule="evenodd" d="M130.396 16.603c3.603 0 5.604 2.314 5.604 4.962 0 .735-.066 1.469-.4 2.136h-7.673c.445 1.558 2.002 1.892 3.359 1.892 1.534 0 2.557-.2 3.669-.646h.267v2.76c-1.201.667-2.602.957-4.515.957-3.847 0-6.427-2.315-6.427-5.986 0-3.805 2.602-6.075 6.116-6.075m.045 2.804c-1.157 0-2.136.534-2.491 1.958h4.803v-.111c-.045-.98-.934-1.847-2.312-1.847m-93.419-6.431c3.736 0 6.16 1.958 6.16 5.274 0 4.094-2.49 5.518-6.338 5.518h-1.802v4.54h-4.047V12.975zm-1.98 7.343h2.202c1.134 0 1.913-.69 1.913-1.936s-.779-1.98-1.913-1.98h-2.202z" clip-rule="evenodd"/><path fill="#fff" d="M51.722 20.319h-.446c-1.356 0-2.757.579-2.757 2.693v5.295h-3.803v-11.37h3.002l.378 1.046h.2c.668-.78 1.69-1.335 3.003-1.38h.422zm50.6-3.382h2.513v3.227h-2.313l.022 8.143h-3.847v-8.143H96.63v-3.227h2.38l.466-2.403h2.847zm8.011 11.37h-3.937v-11.37h3.937zm7.478-5.741h.2l2.491-5.629h3.959l-5.56 11.37h-1.935l-5.56-11.37h3.981zm-93.219-9.463v5.682l-12.296-7.103L0 18.785v-5.682L12.296 6zm44.298-1.929c1.157 0 2.158.979 2.158 2.158 0 1.157-.98 2.136-2.158 2.136a2.136 2.136 0 0 1-2.135-2.136 2.155 2.155 0 0 1 2.135-2.158m39.485 0c1.157 0 2.158.956 2.158 2.136 0 1.157-.979 2.136-2.158 2.136a2.14 2.14 0 0 1-2.157-2.136c0-1.224 1.045-2.136 2.157-2.136"/></svg>