<svg xmlns="http://www.w3.org/2000/svg" fill="none" viewBox="0 0 96 25"><g fill="#333" clip-path="url(#a)"><path d="M12.48 14.618h-1.11l.213-1.55a.76.76 0 0 1-.366-.651c0-.395.32-.73.715-.73a.71.71 0 0 1 .714.71c0 .273-.153.562-.378.682zm-1.999-3.791c0-1.435.725-1.667 1.444-1.667.718 0 1.443.232 1.443 1.667z"/><path fill-rule="evenodd" d="M11.937 21.57c-1.335-.454-9.72-3.801-6.519-15.11.839-.25 1.446-.987 1.722-1.383h9.593c.277.396.883 1.133 1.722 1.382 3.2 11.31-5.185 14.657-6.518 15.111m2.43-10.743h-.332c0-1.537-.888-2.334-2.11-2.334-1.223 0-2.11.797-2.11 2.334h-.333c-.49 0-.685.19-.685.68v3.112c0 .491.194.921.685.921h4.886c.49 0 .776-.43.776-.92v-3.112c0-.492-.286-.681-.776-.681" clip-rule="evenodd"/><path fill-rule="evenodd" d="M23.979 12.434c0 6.627-5.368 12-11.99 12S0 19.06 0 12.434c0-6.628 5.368-12 11.99-12s11.989 5.372 11.989 12m-4.612-6.46-.086-.294-.342-.039c-.648-.073-1.284-.924-1.454-1.217l-.144-.244H6.53l-.142.244c-.17.293-.801 1.143-1.455 1.217l-.342.04-.086.293c-3.9 13.196 7.173 16.474 7.287 16.504l.147.038.148-.04c.112-.03 11.152-3.405 7.28-16.502" clip-rule="evenodd"/><path d="M30.421 15.216q.402 0 .663-.066a1.2 1.2 0 0 0 .42-.183.6.6 0 0 0 .218-.274 1 1 0 0 0 .061-.353q0-.414-.389-.688-.39-.273-1.338-.59a10 10 0 0 1-.826-.335 3 3 0 0 1-.742-.475 2.3 2.3 0 0 1-.535-.693q-.207-.408-.207-.992t.219-1.053a2.25 2.25 0 0 1 .62-.797q.401-.33.973-.505.57-.177 1.289-.177.851 0 1.471.183.62.182 1.022.401l-.547 1.498a5 5 0 0 0-.785-.323 3.4 3.4 0 0 0-1.04-.14q-.68 0-.979.189-.297.188-.297.578 0 .231.109.39.11.158.31.285.201.128.462.232t.578.213a13 13 0 0 1 1.143.48q.486.238.809.554.322.317.48.743t.158 1.034q0 1.18-.827 1.832-.827.651-2.493.651-.56 0-1.009-.067-.45-.067-.796-.164a4.6 4.6 0 0 1-1.016-.414l.535-1.51q.377.208.93.372.554.165 1.356.164m7.078 0q.4 0 .662-.066a1.2 1.2 0 0 0 .42-.183.6.6 0 0 0 .219-.274 1 1 0 0 0 .06-.353q0-.414-.389-.688t-1.337-.59a10 10 0 0 1-.827-.335 3 3 0 0 1-.742-.475 2.3 2.3 0 0 1-.535-.693q-.207-.408-.207-.992t.22-1.053a2.25 2.25 0 0 1 .62-.797q.4-.33.972-.505.57-.177 1.29-.177.85 0 1.47.183.621.182 1.022.401l-.547 1.498a5 5 0 0 0-.784-.323 3.4 3.4 0 0 0-1.04-.14q-.68 0-.98.189-.297.188-.297.578 0 .231.11.39.11.158.31.285.2.128.462.232.26.104.577.213.657.243 1.144.48.486.238.808.554t.48.743q.159.426.159 1.034 0 1.18-.827 1.832-.828.651-2.493.651-.56 0-1.01-.067a7 7 0 0 1-.796-.164 4.5 4.5 0 0 1-1.015-.414l.535-1.51q.375.208.93.372.553.165 1.356.164m10.409 1.449v-1.631h-3.733V8.23h-1.897v8.435zm6.627-1.515q-.258.066-.654.066-.791 0-1.336-.164a4.6 4.6 0 0 1-.917-.371L51.1 16.19a4.4 4.4 0 0 0 1.001.414q.342.098.786.164.443.067.995.067 1.642 0 2.458-.651.815-.651.815-1.832 0-.608-.156-1.034a2 2 0 0 0-.474-.743 3 3 0 0 0-.797-.554q-.48-.237-1.127-.48a13 13 0 0 1-.57-.213 2.7 2.7 0 0 1-.455-.232 1.1 1.1 0 0 1-.306-.286.7.7 0 0 1-.108-.39q0-.389.294-.577.293-.189.965-.189.6 0 1.025.14t.773.322l.54-1.497q-.396-.22-1.007-.401-.612-.183-1.45-.183-.708 0-1.272.177a2.8 2.8 0 0 0-.959.505q-.396.329-.611.797a2.5 2.5 0 0 0-.216 1.053q0 .585.204.992t.527.694q.324.285.731.474.408.188.816.335.935.317 1.319.59.383.274.383.688a1 1 0 0 1-.06.353.6.6 0 0 1-.215.274 1.2 1.2 0 0 1-.414.182m4.058-6.919v8.435h5.887V15.07h-4.017v-2.032h3.322V11.48h-3.321V9.824h3.74V8.23zm11.054 8.605q-2.026 0-3.087-1.144-1.06-1.144-1.061-3.25 0-1.046.324-1.868a4 4 0 0 1 .887-1.388 3.7 3.7 0 0 1 1.343-.858 4.8 4.8 0 0 1 1.69-.292q.528 0 .96.08.43.078.755.182a3.7 3.7 0 0 1 .85.383l-.539 1.534a4.5 4.5 0 0 0-.893-.353 4.2 4.2 0 0 0-1.157-.146q-.431 0-.845.146a1.9 1.9 0 0 0-.731.469 2.3 2.3 0 0 0-.51.833q-.192.512-.192 1.242 0 .585.126 1.09.126.504.408.87.282.365.737.578.456.213 1.103.213a5 5 0 0 0 1.307-.165q.252-.066.444-.152l.347-.158.516 1.521q-.396.245-1.115.438-.72.195-1.667.195m5.719-.249q.636.25 1.51.25.888 0 1.535-.244a2.8 2.8 0 0 0 1.067-.688 2.8 2.8 0 0 0 .624-1.065q.204-.62.204-1.363V8.23h-1.87v5.087q0 1.023-.426 1.449t-1.109.426q-.336 0-.617-.098a1.1 1.1 0 0 1-.48-.322 1.6 1.6 0 0 1-.312-.584 2.9 2.9 0 0 1-.114-.87V8.23h-1.87v5.246q0 .742.198 1.357t.611 1.059 1.05.694"/><path fill-rule="evenodd" d="M84.538 8.133q1.87 0 2.865.675t.995 2.1q0 .888-.401 1.442-.402.555-1.157.87.251.317.528.724.275.408.545.852.27.445.522.926.25.48.467.943h-2.09l-.464-.84a20 20 0 0 0-.969-1.588 8 8 0 0 0-.481-.652h-.923v3.08h-1.87V8.352q.61-.122 1.264-.17.653-.05 1.169-.05m.108 1.618q-.204 0-.366.012l-.306.025v2.288h.528q1.055 0 1.51-.268.456-.267.456-.912 0-.62-.461-.883-.462-.262-1.361-.262" clip-rule="evenodd"/><path d="M90.1 8.23v8.435h5.888V15.07H91.97v-2.032h3.321V11.48h-3.32V9.824h3.74V8.23z"/></g><defs><clipPath id="a"><path fill="#fff" d="M0 .434h96v24H0z"/></clipPath></defs></svg>