<svg xmlns="http://www.w3.org/2000/svg" fill="none" viewBox="0 0 112 48"><g fill="#fff" clip-path="url(#a)"><path d="M11.251 14h15.294L23.36 8.997C22.964 8.38 22.237 8 21.45 8H8.699c-.387 0-.767.092-1.102.267a2.1 2.1 0 0 0-.806.73l-2.552 4.004a1.85 1.85 0 0 0-.295.999c0 .35.102.694.295.998l7.012 11.001 3.188-5.002a1.84 1.84 0 0 0 0-1.995z"/><path d="M14.448 28.998 11.26 34 3.612 22 .425 27.002A1.85 1.85 0 0 0 .13 28c0 .35.101.694.295.997L6.8 39.003c.193.303.472.555.806.73.335.176.715.268 1.102.268h5.103c.387 0 .767-.092 1.102-.267s.613-.428.807-.731L22.731 28h-6.375c-.387 0-.767.092-1.102.268a2.1 2.1 0 0 0-.806.73"/><path d="m22.732 36 7.647-12h-6.375a2.4 2.4 0 0 1-1.102-.268 2.1 2.1 0 0 1-.806-.73l-3.188-5.003h14.023c.788 0 1.515.382 1.908.998l2.552 4.004c.193.304.295.648.295.999 0 .35-.102.694-.295.998l-6.375 10.004a2.1 2.1 0 0 1-.807.73 2.4 2.4 0 0 1-1.102.267zm28.481-3.286h3.722l4.863-11.988h-3.83l-2.894 8.25-2.565-7.308c-.197-.561-.772-.943-1.422-.943h-2.738z"/><path fill-rule="evenodd" d="M74.03 26.632h.001c0-3.353-2.375-6.307-6.74-6.307-4.31 0-6.796 2.879-6.796 6.307 0 3.905 3.094 6.508 7.044 6.508 3.48 0 5.443-1.752 6.3-3.779h-3.62c-.58.776-1.437 1.25-2.652 1.25-1.878 0-3.425-1.425-3.425-3.078h9.833c.056-.324.056-.625.056-.9m-3.674-1.401h-6.188c.138-1.326 1.271-2.553 3.093-2.553 1.742 0 2.93 1.151 3.096 2.553" clip-rule="evenodd"/><path d="M84.27 20.375c-1.767 0-3.23 1.026-3.95 2.203v-1.852h-3.646v11.988h3.73v-5.832c0-2.151 1.104-3.403 3.315-3.403.593 0 1.185.05 1.768.15v-3.154c-.36-.074-.69-.1-1.216-.1m7.59 12.339h-3.729V20.725h3.73zm-.148-17.945-3.887.482.483 3.199 1.641-.203a2.32 2.32 0 0 0 1.498-.794c.364-.433.522-.98.44-1.52zm4.67 17.945h3.757V23.58h4.972v9.135h3.731V23.58h2.873v-2.854h-2.873v-1.601c0-1.076.47-1.726 1.796-1.726.497 0 .967.074 1.491.2v-2.78a10 10 0 0 0-2.293-.274c-3.067 0-4.725 1.526-4.725 4.355v1.826h-4.972v-1.601c0-1.076.471-1.726 1.795-1.726.499 0 .968.074 1.492.2v-2.78a10 10 0 0 0-2.292-.274c-3.095 0-4.752 1.526-4.752 4.355v1.826h-1.878v2.854h1.878z"/></g><defs><clipPath id="a"><path fill="#fff" d="M0 0h112v48H0z"/></clipPath></defs></svg>